<svg xmlns="http://www.w3.org/2000/svg" xmlns:xlink="http://www.w3.org/1999/xlink" viewBox="0 0 3124.33 3180.71"><defs><style>.cls-1,.cls-2{fill:none;}.cls-2{clip-rule:evenodd;}.cls-3{clip-path:url(#clip-path);}.cls-4{isolation:isolate;}.cls-5{clip-path:url(#clip-path-2);}.cls-6{clip-path:url(#clip-path-3);}.cls-7{clip-path:url(#clip-path-4);}.cls-8{fill:#fff;}.cls-9{clip-path:url(#clip-path-5);}.cls-10{clip-path:url(#clip-path-6);}.cls-11{clip-path:url(#clip-path-7);}</style><clipPath id="clip-path" transform="translate(15.13 15.13)"><rect class="cls-1" width="3094.08" height="3150.45"/></clipPath><clipPath id="clip-path-2" transform="translate(15.13 15.13)"><rect class="cls-1" x="-6.46" y="-16.13" width="3104.02" height="3182.68"/></clipPath><clipPath id="clip-path-3" transform="translate(15.13 15.13)"><path class="cls-2" d="M2799,2447.09c-181,248.94-436.22,441.39-726.14,546-302,109-637,120.79-946.13,33.85-296.09-83.28-563.72-256.38-762-491C162.91,2297.15,37.15,1998.75,8,1687.6q-3-31.72-4.61-63.54-.78-15.06-1.26-30.12-.27-8.42-.44-16.83c-.07-3.34-.12-6.67-.16-10v16.23c-1.9-20,1-41.87,2.13-61.95Q5.54,1487.11,9,1453A1530.86,1530.86,0,0,1,234.32,793.3C397.13,532.73,637.85,323.26,919,198.37,1210.62,68.85,1540.94,33.3,1853.76,96.13c304.45,61.17,586.65,215.8,802.82,438.14,216.68,222.84,363,509.7,414.72,816,13,77,21.07,155.6,21.2,233.73,0,4.51.44,22.67.4,23,1.51-13.13.25-27.37.23-40.55-.26-164.78-21.13-327.58-70.53-485.16a1537.75,1537.75,0,0,0-207.16-420.84c-180-257.35-438.37-457.15-733.55-565.78C1774.46-18.47,1432.23-30.5,1117.44,60.18,814.35,147.49,541.91,329.09,343.78,573.89,143,821.91,23.57,1129.64,4.06,1447.8c-10.33,168.53-1.86,339.68,35.8,504.57a1533.85,1533.85,0,0,0,174.82,438.37c159.57,269.91,401.62,488.41,687,619.4C1199,3146.63,1538,3184.71,1858.56,3119.26c310.41-63.38,597.21-224,814.3-454.15C2891,2433.88,3034.23,2137,3078,1822.37c11-79.1,15-158.59,15.1-238.39,0-12.88,2.26-27.91-.23-40.55-.64-3.27-.26,3.48-.25,3.32-.4,6.53-.14,13.18-.15,19.7C3092,1880.11,2983,2194.07,2799,2447.09Z"/></clipPath><clipPath id="clip-path-4" transform="translate(15.13 15.13)"><rect class="cls-1" x="-0.41" y="-1" width="3094.95" height="3152.43"/></clipPath><clipPath id="clip-path-5" transform="translate(15.13 15.13)"><path class="cls-2" d="M2200.39,2350.28c-17.06-68.26,23.8-137.59,91.23-154.84a125.1,125.1,0,0,1,31-3.92c56.32,0,107.61,38.48,122.06,96.25,17.06,68.22-23.8,137.55-91.28,154.81a124.45,124.45,0,0,1-31,3.92h0C2266.1,2446.51,2214.84,2408,2200.39,2350.28ZM1769,1198.48l502.15,959.63.45.22c-58.3,18.83-99.85,67.66-112.17,125.05L1145.25,1727.6l38.48-59.55-27.1-23s202-285.42,476.87-424.91l15.64,28.45ZM1431.91,437.41c-37.93.14-81.87,16.75-128.77,65.79,0,0-63.88-35.27-68.81,31.33L1271,581.15s34.54,34.77,33.39-21.59c0,0,103.14-52.54,137.72-.37S1606,870.14,1606,870.14l-69.8,31,17.28,34.78S1131.65,1091.74,900.83,1495l-65.9-39.8-44.41,63.66-294.07-160s-64.92-35.69,3.69-122.94c0,0,60.22,14.71,23.93-36.47l-45.75-29.37s-48.84-5-23,44.8c0,0-76,59.43-76.37,140.16v1c.16,37.7,16.89,80,65.54,123l600.06,332.65,10.71,42.84,63.3,31.15,122.19,53s37.86,83.23,60.46,79.6,136-19.67,202.71,110.19l86.89-20.06L2226,2456.61a164.56,164.56,0,0,0,137.41,26c75.23-19.25,125.49-87.39,125.94-162.4v-2a170.69,170.69,0,0,0-5.13-40.47,173,173,0,0,0-5.18-17l-229.78-919,52.55-30.87-11.26-45s-83.15-39.75-49.15-196.59c0,0-41.71-63.41-104.34-3.82l-64.65,34c-34.89,18.34-57.39,92.66,19.44,77.77,28.67-5.56,42.27-10.39,48.07-14.29l-2.61-10.4s12.34,3.86,2.61,10.4l180.67,722.6s4.26,68.63-36.4,9.33S1956.32,1238,1956.32,1238s-53.62,17-65.11-11.27,22.39-56.19,22.39-56.19L1562.43,506.55s-52.13-68.94-129.71-69.14Z"/></clipPath><clipPath id="clip-path-6" transform="translate(15.13 15.13)"><rect class="cls-1" x="229.52" y="289.43" width="2408.19" height="2347.68"/></clipPath><clipPath id="clip-path-7" transform="translate(15.13 15.13)"><rect class="cls-1" x="377.76" y="434.65" width="2111.7" height="2054.22"/></clipPath></defs><g id="Livello_2" data-name="Livello 2"><g id="Livello_1-2" data-name="Livello 1"><g class="cls-3"><g class="cls-4"><g class="cls-5"><g class="cls-6"><g class="cls-7"><rect class="cls-8" width="3124.33" height="3180.71"/></g></g></g></g></g><g class="cls-9"><g class="cls-4"><g class="cls-10"><g class="cls-11"><rect class="cls-8" x="230.86" y="289.64" width="2436.85" height="2376.17"/></g></g></g></g></g></g></svg>